<svg xmlns="http://www.w3.org/2000/svg" xmlns:svg="http://www.w3.org/2000/svg" id="svg2" width="1166.417" height="989.167" x="0" y="0" enable-background="new 0 0 841.89 595.28" version="1.1" viewBox="0 0 1166.417 989.167" xml:space="preserve"><metadata id="metadata53"/><defs id="defs51"><filter id="filter3019" color-interpolation-filters="sRGB"><feFlood id="feFlood3021" flood-color="#000" flood-opacity=".5" result="flood"/><feComposite id="feComposite3023" in="flood" in2="SourceGraphic" operator="in" result="composite1"/><feGaussianBlur id="feGaussianBlur3025" result="blur" stdDeviation="2"/><feOffset id="feOffset3027" dx="4" dy="4" result="offset"/><feComposite id="feComposite3029" in="SourceGraphic" in2="offset" operator="over" result="composite2"/></filter></defs><g style="opacity:.15111114" id="Layer_1" transform="matrix(2.0572447,0,0,2.0572447,-144.28418,-133.05166)"><path id="path10" stroke-miterlimit="10" d="m 526.814,430.41 c 0.681,5.149 -3.567,9.958 -9.484,10.74 l -288.442,38.068 c -5.918,0.78 -11.266,-2.763 -11.946,-7.912 L 183.806,220.24 c -0.68,-5.152 3.566,-9.96 9.483,-10.741 l 288.443,-38.068 c 5.918,-0.781 11.267,2.761 11.946,7.913 l 33.136,251.066 z" style="fill:#f07e2a;stroke:#e1ddda;stroke-width:4;stroke-miterlimit:10"/></g><path style="opacity:.15111114;fill:#f07e2a;stroke:#e1ddda;stroke-width:8.22901535;stroke-miterlimit:10" id="rect15" d="m 329.13925,87.973529 c -1.19857,0.05165 -2.38373,0.160738 -3.60018,0.321476 -19.4633,2.569825 -33.42202,18.443645 -31.18012,35.423155 1.88378,14.26718 14.58795,24.75539 30.1515,26.22988 l 15.81506,119.9631 21.72965,-2.82874 -15.94364,-121.056 c 12.55542,-6.20018 20.4307,-18.58341 18.70807,-31.63009 C 362.7178,98.477946 347.11784,87.201573 329.13925,87.973529 z"/><path style="opacity:.15111114;fill:#f07e2a;stroke:#e1ddda;stroke-width:8.22901535;stroke-miterlimit:10" id="rect21" d="m 737.75945,34.163762 c -1.19855,0.05124 -2.38372,0.09669 -3.60016,0.257016 -19.46331,2.567883 -33.42017,18.444753 -31.18013,35.423194 1.88221,14.266183 14.58832,24.754031 30.15149,26.229845 l 15.87934,119.898803 21.72968,-2.893 -16.00794,-120.927398 c 12.57695,-6.19267 20.43088,-18.571855 18.70805,-31.630148 -2.10001,-15.917281 -17.70193,-27.128697 -35.68033,-26.358436 z"/><g style="opacity:.15111114" id="Layer_5" transform="matrix(2.0572447,0,0,2.0572447,-144.28418,-133.05166)"><path id="path26" stroke-miterlimit="10" d="m 192.194,347.364 c 0.718,5.442 -6.206,10.845 -15.466,12.067 l 0,0 c -9.259,1.222 -17.348,-2.2 -18.066,-7.642 l -3.845,-29.133 c -0.718,-5.441 6.206,-10.845 15.465,-12.066 l 0,0 c 9.26,-1.223 17.349,2.199 18.067,7.642 l 3.845,29.132 z" style="fill:#f07e2a;stroke:#e1ddda;stroke-width:4;stroke-miterlimit:10"/><path id="path28" stroke-miterlimit="10" d="m 552.425,300.744 c 0.719,5.442 -6.206,10.845 -15.466,12.067 l 0,0 c -9.259,1.222 -17.349,-2.198 -18.066,-7.642 l -3.845,-29.131 c -0.719,-5.443 6.207,-10.845 15.466,-12.068 l 0,0 c 9.26,-1.222 17.349,2.2 18.067,7.641 l 3.844,29.133 z" style="fill:#f07e2a;stroke:#e1ddda;stroke-width:4;stroke-miterlimit:10"/></g><g id="Layer_2" transform="matrix(2.0572447,0,0,2.0572447,-144.28418,-133.05166)"><path id="path31" d="m 320.916,329.627 c 0.867,6.569 -3.756,12.6 -10.327,13.467 l -71.702,9.464 c -6.57,0.867 -12.6,-3.758 -13.467,-10.328 l -9.174,-69.515 c -0.867,-6.57 3.757,-12.6 10.327,-13.466 l 71.702,-9.463 c 6.57,-0.867 12.6,3.756 13.467,10.327 l 9.174,69.514 z" style="fill:#fff"/><path id="path33" d="m 479.964,308.635 c 0.867,6.57 -3.757,12.602 -10.328,13.468 l -71.701,9.463 c -6.57,0.868 -12.6,-3.757 -13.467,-10.326 l -9.174,-69.515 c -0.868,-6.57 3.756,-12.6 10.326,-13.467 l 71.702,-9.463 c 6.57,-0.867 12.601,3.756 13.467,10.327 l 9.175,69.513 z" style="fill:#fff"/></g><g style="opacity:.15111114" id="Layer_6" transform="matrix(2.0572447,0,0,2.0572447,-144.28418,-133.05166)"><path id="path36" stroke-miterlimit="10" d="M 266.738,437.14" style="fill:#273069;stroke:#000;stroke-width:9;stroke-miterlimit:10"/><g id="g38"><line id="line40" x1="440.157" x2="297.228" y1="390.268" y2="426.401"/><polygon id="polygon42" points="297.228 426.401 438.441 383.481 441.873 397.054" style="fill:#273069"/></g></g><g style="opacity:.15111114" id="Layer_3" transform="matrix(2.0572447,0,0,2.0572447,-144.28418,-133.05166)"><ellipse id="ellipse45" cx="285.602" cy="272.225" stroke-miterlimit="10" rx="10.662" ry="11.029" transform="matrix(0.9914,-0.1308,0.1308,0.9914,-33.1576,39.7013)" style="fill:#273069;stroke:#000;stroke-miterlimit:10"/><ellipse id="ellipse47" cx="448.949" cy="250.666" stroke-miterlimit="10" rx="10.662" ry="11.029" transform="matrix(0.9914,-0.1309,0.1309,0.9914,-28.9422,60.9065)" style="fill:#273069;stroke:#000;stroke-miterlimit:10"/></g></svg>