<svg xmlns="http://www.w3.org/2000/svg" xmlns:svg="http://www.w3.org/2000/svg" id="svg2" width="190.045" height="200.801" x="0" y="0" enable-background="new 0 0 841.89 595.28" version="1.1" viewBox="0 0 190.045 200.801" xml:space="preserve"><metadata id="metadata53"/><defs id="defs51"><filter id="filter3019" color-interpolation-filters="sRGB"><feFlood id="feFlood3021" flood-color="#000" flood-opacity=".5" result="flood"/><feComposite id="feComposite3023" in="flood" in2="SourceGraphic" operator="in" result="composite1"/><feGaussianBlur id="feGaussianBlur3025" result="blur" stdDeviation="2"/><feOffset id="feOffset3027" dx="4" dy="4" result="offset"/><feComposite id="feComposite3029" in="SourceGraphic" in2="offset" operator="over" result="composite2"/></filter></defs><path style="fill:#f07e2a;stroke:#e1ddda;stroke-width:1.99149299;stroke-miterlimit:10" id="rect15" d="m 32.702901,6.9267152 c -0.290065,0.0125 -0.576883,0.0389 -0.871275,0.0778 -4.710288,0.62192 -8.088418,4.4635208 -7.545858,8.5727108 0.455891,3.45278 3.530409,5.991019 7.296923,6.347859 l 3.827383,29.032109 5.258763,-0.68458 -3.8585,-29.296599 c 3.038522,-1.500499 4.944407,-4.497349 4.527515,-7.654759 -0.50865,-3.8523808 -4.283977,-6.5813608 -8.634951,-6.3945408 z"/><path style="fill:#f07e2a;stroke:#e1ddda;stroke-width:1.99149299;stroke-miterlimit:10" id="rect21" d="m 131.59253,-6.0957147 c -0.29006,0.0124 -0.57688,0.0234 -0.87127,0.0622 -4.71029,0.62145 -8.08797,4.46379 -7.54586,8.5727199 0.45551,3.45254 3.5305,5.99069 7.29692,6.34785 l 3.84294,29.0165498 5.25877,-0.70013 -3.87406,-29.2654798 c 3.04373,-1.49868 4.94445,-4.49455 4.52751,-7.65476998 -0.50822,-3.85211992 -4.28402,-6.56537992 -8.63495,-6.37896992 z"/><g id="Layer_5" transform="matrix(0.49787104,0,0,0.49787104,-81.869672,-46.563295)"><path id="path26" stroke-miterlimit="10" d="m 192.194,347.364 c 0.718,5.442 -6.206,10.845 -15.466,12.067 l 0,0 c -9.259,1.222 -17.348,-2.2 -18.066,-7.642 l -3.845,-29.133 c -0.718,-5.441 6.206,-10.845 15.465,-12.066 l 0,0 c 9.26,-1.223 17.349,2.199 18.067,7.642 l 3.845,29.132 z" style="fill:#f07e2a;stroke:#e1ddda;stroke-width:4;stroke-miterlimit:10"/><path id="path28" stroke-miterlimit="10" d="m 552.425,300.744 c 0.719,5.442 -6.206,10.845 -15.466,12.067 l 0,0 c -9.259,1.222 -17.349,-2.198 -18.066,-7.642 l -3.845,-29.131 c -0.719,-5.443 6.207,-10.845 15.466,-12.068 l 0,0 c 9.26,-1.222 17.349,2.2 18.067,7.641 l 3.844,29.133 z" style="fill:#f07e2a;stroke:#e1ddda;stroke-width:4;stroke-miterlimit:10"/></g><g id="g3005"><g id="Layer_1" transform="matrix(0.49787104,0,0,0.49787104,-81.869672,-46.563295)"><path style="fill:#f07e2a;stroke:#e1ddda;stroke-width:4;stroke-miterlimit:10" id="path10" stroke-miterlimit="10" d="m 526.814,430.41 c 0.681,5.149 -3.567,9.958 -9.484,10.74 l -288.442,38.068 c -5.918,0.78 -11.266,-2.763 -11.946,-7.912 L 183.806,220.24 c -0.68,-5.152 3.566,-9.96 9.483,-10.741 l 288.443,-38.068 c 5.918,-0.781 11.267,2.761 11.946,7.913 l 33.136,251.066 z"/></g><g id="Layer_2" transform="matrix(0.49787104,0,0,0.49787104,-81.869672,-46.563295)"><path style="fill:#fff" id="path31" d="m 320.916,329.627 c 0.867,6.569 -3.756,12.6 -10.327,13.467 l -71.702,9.464 c -6.57,0.867 -12.6,-3.758 -13.467,-10.328 l -9.174,-69.515 c -0.867,-6.57 3.757,-12.6 10.327,-13.466 l 71.702,-9.463 c 6.57,-0.867 12.6,3.756 13.467,10.327 l 9.174,69.514 z"/><path style="fill:#fff" id="path33" d="m 479.964,308.635 c 0.867,6.57 -3.757,12.602 -10.328,13.468 l -71.701,9.463 c -6.57,0.868 -12.6,-3.757 -13.467,-10.326 l -9.174,-69.515 c -0.868,-6.57 3.756,-12.6 10.326,-13.467 l 71.702,-9.463 c 6.57,-0.867 12.601,3.756 13.467,10.327 l 9.175,69.513 z"/></g><g id="Layer_6" transform="matrix(0.49787104,0,0,0.49787104,-81.869672,-46.563295)"><path style="fill:#273069;stroke:#000;stroke-width:9;stroke-miterlimit:10" id="path36" stroke-miterlimit="10" d="M 266.738,437.14"/><g id="g38"><line id="line40" x1="440.157" x2="297.228" y1="390.268" y2="426.401"/><polygon style="fill:#273069" id="polygon42" points="441.873 397.054 297.228 426.401 438.441 383.481"/></g></g><g id="Layer_3" transform="matrix(0.49787104,0,0,0.49787104,-81.869672,-46.563295)"><ellipse style="fill:#273069;stroke:#000;stroke-miterlimit:10" id="ellipse45" cx="285.602" cy="272.225" stroke-miterlimit="10" rx="10.662" ry="11.029" transform="matrix(0.9914,-0.1308,0.1308,0.9914,-33.1576,39.7013)"/><ellipse style="fill:#273069;stroke:#000;stroke-miterlimit:10" id="ellipse47" cx="448.949" cy="250.666" stroke-miterlimit="10" rx="10.662" ry="11.029" transform="matrix(0.9914,-0.1309,0.1309,0.9914,-28.9422,60.9065)"/></g></g></svg>